<svg width="593" height="484" viewBox="0 0 593 484" fill="none" xmlns="http://www.w3.org/2000/svg">
<path d="M584 282C584 335.574 562.771 386.953 524.982 424.836C487.193 462.718 435.941 484 382.5 484C329.059 484 277.807 462.718 240.018 424.836C202.229 386.953 181 335.574 181 282H382.5H584Z" fill="#E2ACFE"/>
<path d="M262 0L580 316H262V0Z" fill="#B8BBFE"/>
<path d="M193 410C292.964 410 374 328.964 374 229C374 129.036 292.964 48 193 48C93.0365 48 12 129.036 12 229C12 328.964 93.0365 410 193 410Z" fill="#EB80FD"/>
<g filter="url(#filter0_d_20_14608)">
<path d="M550.573 314.948V165.052H580.041V314.948H550.573Z" fill="#390258"/>
</g>
<g filter="url(#filter1_d_20_14608)">
<path d="M417.424 314.948C412.066 314.948 407.121 313.63 402.587 310.993C398.054 308.217 394.482 304.608 391.872 300.167C389.262 295.587 387.957 290.521 387.957 284.969V272.269H417.63V283.512C417.63 283.928 417.699 284.275 417.836 284.553C418.111 284.691 418.386 284.761 418.66 284.761H505.002C505.277 284.761 505.552 284.691 505.826 284.553C506.101 284.275 506.239 283.928 506.239 283.512V256.239C506.239 255.961 506.101 255.753 505.826 255.614C505.552 255.337 505.277 255.198 505.002 255.198H417.424C412.066 255.198 407.121 253.879 402.587 251.242C398.054 248.466 394.482 244.788 391.872 240.208C389.262 235.628 387.957 230.631 387.957 225.218V195.031C387.957 189.479 389.262 184.483 391.872 180.041C394.482 175.461 398.054 171.852 402.587 169.215C407.121 166.439 412.066 165.052 417.424 165.052H506.651C512.008 165.052 516.885 166.439 521.281 169.215C525.815 171.852 529.455 175.461 532.203 180.041C534.95 184.483 536.324 189.479 536.324 195.031V207.73H506.239V196.488C506.239 196.072 506.101 195.794 505.826 195.655C505.552 195.378 505.277 195.239 505.002 195.239H418.66C418.386 195.239 418.111 195.378 417.836 195.655C417.699 195.794 417.63 196.072 417.63 196.488V223.761C417.63 224.039 417.699 224.316 417.836 224.594C418.111 224.733 418.386 224.802 418.66 224.802H506.651C512.008 224.802 516.885 226.19 521.281 228.966C525.815 231.603 529.455 235.212 532.203 239.792C534.95 244.372 536.324 249.369 536.324 254.781V284.969C536.324 290.521 534.95 295.587 532.203 300.167C529.455 304.608 525.815 308.217 521.281 310.993C516.885 313.63 512.008 314.948 506.651 314.948H417.424Z" fill="#390258"/>
</g>
<g filter="url(#filter2_d_20_14608)">
<path d="M344.298 314.948V165.052H373.765V314.948H344.298Z" fill="#390258"/>
</g>
<g filter="url(#filter3_d_20_14608)">
<path d="M180.694 314.948V195.031C180.694 189.479 181.999 184.483 184.609 180.041C187.357 175.461 190.929 171.852 195.325 169.215C199.858 166.439 204.873 165.052 210.368 165.052H299.182C304.677 165.052 309.623 166.439 314.019 169.215C318.552 171.852 322.193 175.461 324.94 180.041C327.688 184.483 329.062 189.479 329.062 195.031V314.948H298.976V265.607H210.368V314.948H180.694ZM210.368 235.628H298.976V196.488C298.976 196.072 298.839 195.794 298.564 195.655C298.427 195.378 298.152 195.239 297.74 195.239H211.604C211.192 195.239 210.848 195.378 210.574 195.655C210.436 195.794 210.368 196.072 210.368 196.488V235.628Z" fill="#390258"/>
</g>
<g filter="url(#filter4_d_20_14608)">
<path d="M12.9594 314.948V165.052H131.447C136.943 165.052 141.888 166.439 146.284 169.215C150.818 171.852 154.458 175.461 157.206 180.041C159.953 184.483 161.327 189.479 161.327 195.031V284.969C161.327 290.521 159.953 295.587 157.206 300.167C154.458 304.608 150.818 308.217 146.284 310.993C141.888 313.63 136.943 314.948 131.447 314.948H12.9594ZM43.6633 284.761H130.005C130.417 284.761 130.692 284.691 130.829 284.553C131.104 284.275 131.241 283.928 131.241 283.512V196.488C131.241 196.072 131.104 195.794 130.829 195.655C130.692 195.378 130.417 195.239 130.005 195.239H43.6633C43.3885 195.239 43.1137 195.378 42.839 195.655C42.5642 195.794 42.4269 196.072 42.4269 196.488V283.512C42.4269 283.928 42.5642 284.275 42.839 284.553C43.1137 284.691 43.3885 284.761 43.6633 284.761Z" fill="#390258"/>
</g>
<g filter="url(#filter5_d_20_14608)">
<path d="M580.041 165.052H550.573V314.948H580.041V165.052ZM589 314.948C589 319.947 584.989 324 580.041 324H550.573C545.625 324 541.614 319.947 541.614 314.948V165.052C541.614 160.053 545.625 156 550.573 156H580.041C584.989 156 589 160.053 589 165.052V314.948Z" fill="#DFAEF9"/>
<path d="M506.65 156V165.052H417.424V156H506.65ZM426.59 275.709H497.279V264.25H421.785C424.64 265.763 426.59 268.785 426.59 272.269V275.709ZM497.279 204.291H426.59V215.75H502.086C499.229 214.237 497.279 211.215 497.279 207.73V204.291ZM505.826 195.655C506.101 195.794 506.238 196.072 506.238 196.488V207.73H536.324V195.03C536.324 189.479 534.951 184.482 532.203 180.041C529.456 175.461 525.815 171.852 521.281 169.215C517.023 166.526 512.313 165.139 507.152 165.055L506.65 165.052V156C513.572 156 520.055 157.805 525.888 161.451C531.651 164.834 536.314 169.471 539.8 175.244L540.141 175.805C543.602 181.629 545.283 188.112 545.284 195.03V207.73C545.284 212.729 541.272 216.782 536.324 216.782H515.431C519.089 217.671 522.579 219.137 525.863 221.187C531.674 224.591 536.367 229.269 539.865 235.1C543.471 241.111 545.284 247.733 545.284 254.782V284.969C545.284 292.111 543.493 298.81 539.865 304.858C539.844 304.893 539.822 304.929 539.8 304.964C536.293 310.634 531.63 315.241 525.925 318.733C525.902 318.748 525.879 318.762 525.855 318.776C520.008 322.284 513.537 324 506.65 324H417.424C410.537 324 404.044 322.285 398.117 318.837C398.059 318.803 398.001 318.768 397.943 318.733C392.2 315.217 387.558 310.555 384.168 304.788C384.148 304.753 384.127 304.718 384.107 304.683C380.674 298.659 378.997 292.022 378.997 284.969V272.269C378.998 267.27 383.009 263.217 387.957 263.217H408.434C404.841 262.367 401.392 260.992 398.117 259.086C398.059 259.053 398.001 259.018 397.943 258.983C392.135 255.427 387.482 250.647 384.107 244.725C380.694 238.736 378.997 232.176 378.997 225.218V195.03C378.997 188.02 380.655 181.442 384.107 175.525L384.43 174.969C387.785 169.292 392.354 164.741 398.034 161.419C403.96 157.813 410.483 156 417.424 156V165.052L416.923 165.055C411.757 165.139 406.979 166.526 402.588 169.215C398.054 171.852 394.482 175.461 391.872 180.041C389.262 184.482 387.957 189.479 387.957 195.03V225.218L387.96 225.725C388.039 230.943 389.344 235.771 391.872 240.208C394.482 244.788 398.054 248.466 402.588 251.242C406.979 253.797 411.757 255.114 416.923 255.193L417.424 255.198H505.002C505.277 255.198 505.552 255.337 505.826 255.614L505.923 255.669C506.134 255.806 506.238 255.996 506.238 256.238V283.511C506.238 283.928 506.101 284.275 505.826 284.552C505.552 284.691 505.277 284.761 505.002 284.761H418.66L418.455 284.748C418.248 284.722 418.042 284.657 417.836 284.552C417.733 284.344 417.668 284.097 417.643 283.811L417.63 283.511V272.269H387.957V284.969L387.96 285.488C388.039 290.837 389.343 295.73 391.872 300.167C394.482 304.608 398.054 308.217 402.588 310.993C407.121 313.63 412.066 314.948 417.424 314.948H506.65C512.008 314.948 516.885 313.63 521.281 310.993C525.673 308.303 529.227 304.833 531.942 300.58L532.203 300.167C534.951 295.587 536.324 290.52 536.324 284.969V254.782C536.324 249.538 535.035 244.684 532.457 240.222L532.203 239.791C529.456 235.211 525.815 231.603 521.281 228.966C517.023 226.277 512.313 224.89 507.152 224.806L506.65 224.802H418.66L418.455 224.789C418.248 224.763 418.042 224.698 417.836 224.593C417.733 224.385 417.668 224.177 417.643 223.969L417.63 223.761V196.488C417.63 196.072 417.699 195.794 417.836 195.655C418.076 195.413 418.317 195.276 418.557 195.245L418.66 195.239H505.002C505.277 195.239 505.552 195.378 505.826 195.655Z" fill="#DFAEF9"/>
<path d="M373.765 165.052H344.298V314.948H373.765V165.052ZM382.725 314.948C382.725 319.947 378.713 324 373.765 324H344.298C339.35 324 335.339 319.947 335.339 314.948V165.052C335.339 160.053 339.35 156 344.298 156H373.765C378.713 156 382.725 160.053 382.725 165.052V314.948Z" fill="#DFAEF9"/>
<path d="M329.062 195.03C329.062 189.479 327.688 184.482 324.941 180.041C322.193 175.461 318.552 171.852 314.019 169.215C309.76 166.526 304.986 165.139 299.696 165.055L299.183 165.052V156C306.203 156 312.769 157.785 318.645 161.463C324.399 164.844 329.056 169.477 332.538 175.244L332.878 175.805C336.34 181.629 338.021 188.112 338.021 195.03V314.948C338.021 319.947 334.01 324 329.062 324H298.976C294.028 324 290.017 319.947 290.017 314.948V274.659H219.327V314.948C219.327 319.947 215.315 324 210.367 324H180.694C175.746 324 171.735 319.947 171.735 314.948V195.03C171.735 187.978 173.413 181.364 176.906 175.42L176.947 175.35C180.319 169.728 184.755 165.15 190.219 161.756L190.751 161.432C196.719 157.795 203.325 156 210.367 156V165.052L209.854 165.055C204.559 165.139 199.716 166.526 195.324 169.215C190.928 171.852 187.356 175.461 184.609 180.041C181.999 184.482 180.695 189.479 180.694 195.03V314.948H210.367V265.607H298.976V314.948H329.062V195.03ZM219.327 226.576H290.017V204.291H219.327V226.576ZM299.183 156V165.052H210.367V156H299.183ZM298.564 195.655C298.839 195.794 298.976 196.072 298.976 196.488V235.628H210.367V196.488C210.367 196.072 210.436 195.794 210.574 195.655C210.814 195.412 211.107 195.275 211.453 195.245L211.604 195.239H297.74C298.152 195.239 298.427 195.378 298.564 195.655Z" fill="#DFAEF9"/>
<path d="M161.327 284.969V195.03C161.327 189.479 159.953 184.482 157.206 180.041C154.458 175.461 150.817 171.852 146.284 169.215C142.025 166.526 137.251 165.139 131.961 165.055L131.447 165.052V156C138.468 156 145.035 157.785 150.911 161.464C156.665 164.845 161.321 169.478 164.803 175.244L165.144 175.805C168.605 181.629 170.286 188.112 170.286 195.03V284.969C170.286 292.111 168.496 298.81 164.868 304.858C164.846 304.893 164.825 304.929 164.803 304.964C161.295 310.634 156.632 315.241 150.928 318.733C150.905 318.748 150.881 318.762 150.858 318.776C144.974 322.305 138.428 324 131.447 324H12.9594C8.01126 324 4 319.947 4 314.948V165.052C4 160.053 8.01126 156 12.9594 156H131.447V165.052H12.9594V314.948H131.447L131.961 314.945C137.251 314.865 142.025 313.547 146.284 310.993C150.676 308.303 154.23 304.833 156.946 300.58L157.206 300.167C159.953 295.587 161.327 290.52 161.327 284.969ZM51.386 275.709H122.282V204.291H51.386V275.709ZM130.829 195.655C131.104 195.794 131.241 196.072 131.241 196.488V283.511C131.241 283.928 131.104 284.275 130.829 284.552C130.691 284.691 130.417 284.761 130.005 284.761H43.6629L43.4572 284.748C43.2512 284.722 43.0447 284.657 42.8387 284.552C42.564 284.275 42.4266 283.927 42.4266 283.511V196.488C42.4266 196.072 42.5641 195.794 42.8387 195.655C43.0792 195.412 43.32 195.275 43.5605 195.245L43.6629 195.239H130.005C130.417 195.239 130.692 195.378 130.829 195.655Z" fill="#DFAEF9"/>
</g>
<defs>
<filter id="filter0_d_20_14608" x="546.573" y="165.052" width="37.468" height="157.896" filterUnits="userSpaceOnUse" color-interpolation-filters="sRGB">
<feFlood flood-opacity="0" result="BackgroundImageFix"/>
<feColorMatrix in="SourceAlpha" type="matrix" values="0 0 0 0 0 0 0 0 0 0 0 0 0 0 0 0 0 0 127 0" result="hardAlpha"/>
<feOffset dy="4"/>
<feGaussianBlur stdDeviation="2"/>
<feComposite in2="hardAlpha" operator="out"/>
<feColorMatrix type="matrix" values="0 0 0 0 0 0 0 0 0 0 0 0 0 0 0 0 0 0 0.25 0"/>
<feBlend mode="normal" in2="BackgroundImageFix" result="effect1_dropShadow_20_14608"/>
<feBlend mode="normal" in="SourceGraphic" in2="effect1_dropShadow_20_14608" result="shape"/>
</filter>
<filter id="filter1_d_20_14608" x="383.957" y="165.052" width="156.367" height="157.896" filterUnits="userSpaceOnUse" color-interpolation-filters="sRGB">
<feFlood flood-opacity="0" result="BackgroundImageFix"/>
<feColorMatrix in="SourceAlpha" type="matrix" values="0 0 0 0 0 0 0 0 0 0 0 0 0 0 0 0 0 0 127 0" result="hardAlpha"/>
<feOffset dy="4"/>
<feGaussianBlur stdDeviation="2"/>
<feComposite in2="hardAlpha" operator="out"/>
<feColorMatrix type="matrix" values="0 0 0 0 0 0 0 0 0 0 0 0 0 0 0 0 0 0 0.25 0"/>
<feBlend mode="normal" in2="BackgroundImageFix" result="effect1_dropShadow_20_14608"/>
<feBlend mode="normal" in="SourceGraphic" in2="effect1_dropShadow_20_14608" result="shape"/>
</filter>
<filter id="filter2_d_20_14608" x="340.298" y="165.052" width="37.467" height="157.896" filterUnits="userSpaceOnUse" color-interpolation-filters="sRGB">
<feFlood flood-opacity="0" result="BackgroundImageFix"/>
<feColorMatrix in="SourceAlpha" type="matrix" values="0 0 0 0 0 0 0 0 0 0 0 0 0 0 0 0 0 0 127 0" result="hardAlpha"/>
<feOffset dy="4"/>
<feGaussianBlur stdDeviation="2"/>
<feComposite in2="hardAlpha" operator="out"/>
<feColorMatrix type="matrix" values="0 0 0 0 0 0 0 0 0 0 0 0 0 0 0 0 0 0 0.25 0"/>
<feBlend mode="normal" in2="BackgroundImageFix" result="effect1_dropShadow_20_14608"/>
<feBlend mode="normal" in="SourceGraphic" in2="effect1_dropShadow_20_14608" result="shape"/>
</filter>
<filter id="filter3_d_20_14608" x="176.694" y="165.052" width="156.368" height="157.896" filterUnits="userSpaceOnUse" color-interpolation-filters="sRGB">
<feFlood flood-opacity="0" result="BackgroundImageFix"/>
<feColorMatrix in="SourceAlpha" type="matrix" values="0 0 0 0 0 0 0 0 0 0 0 0 0 0 0 0 0 0 127 0" result="hardAlpha"/>
<feOffset dy="4"/>
<feGaussianBlur stdDeviation="2"/>
<feComposite in2="hardAlpha" operator="out"/>
<feColorMatrix type="matrix" values="0 0 0 0 0 0 0 0 0 0 0 0 0 0 0 0 0 0 0.25 0"/>
<feBlend mode="normal" in2="BackgroundImageFix" result="effect1_dropShadow_20_14608"/>
<feBlend mode="normal" in="SourceGraphic" in2="effect1_dropShadow_20_14608" result="shape"/>
</filter>
<filter id="filter4_d_20_14608" x="8.95935" y="165.052" width="156.368" height="157.896" filterUnits="userSpaceOnUse" color-interpolation-filters="sRGB">
<feFlood flood-opacity="0" result="BackgroundImageFix"/>
<feColorMatrix in="SourceAlpha" type="matrix" values="0 0 0 0 0 0 0 0 0 0 0 0 0 0 0 0 0 0 127 0" result="hardAlpha"/>
<feOffset dy="4"/>
<feGaussianBlur stdDeviation="2"/>
<feComposite in2="hardAlpha" operator="out"/>
<feColorMatrix type="matrix" values="0 0 0 0 0 0 0 0 0 0 0 0 0 0 0 0 0 0 0.25 0"/>
<feBlend mode="normal" in2="BackgroundImageFix" result="effect1_dropShadow_20_14608"/>
<feBlend mode="normal" in="SourceGraphic" in2="effect1_dropShadow_20_14608" result="shape"/>
</filter>
<filter id="filter5_d_20_14608" x="0" y="156" width="593" height="176" filterUnits="userSpaceOnUse" color-interpolation-filters="sRGB">
<feFlood flood-opacity="0" result="BackgroundImageFix"/>
<feColorMatrix in="SourceAlpha" type="matrix" values="0 0 0 0 0 0 0 0 0 0 0 0 0 0 0 0 0 0 127 0" result="hardAlpha"/>
<feOffset dy="4"/>
<feGaussianBlur stdDeviation="2"/>
<feComposite in2="hardAlpha" operator="out"/>
<feColorMatrix type="matrix" values="0 0 0 0 0 0 0 0 0 0 0 0 0 0 0 0 0 0 0.25 0"/>
<feBlend mode="normal" in2="BackgroundImageFix" result="effect1_dropShadow_20_14608"/>
<feBlend mode="normal" in="SourceGraphic" in2="effect1_dropShadow_20_14608" result="shape"/>
</filter>
</defs>
</svg>
