<svg width="1322" height="1094" viewBox="0 0 1322 1094" fill="none" xmlns="http://www.w3.org/2000/svg">
<path d="M937.223 352.317H1135.21C1150.84 352.317 1165.48 356.394 1178.65 364.628C1191.67 372.268 1202.2 382.74 1210.07 395.778L1210.84 397.046C1212.05 399.073 1213.16 401.135 1214.17 403.23V372.761C1214.17 361.471 1223.23 352.317 1234.4 352.317H1300.96C1312.13 352.318 1321.19 361.471 1321.19 372.761V711.292C1321.19 722.582 1312.13 731.735 1300.96 731.735H1299.95C1281.8 817.347 1239.29 896.628 1176.61 959.467C1091.27 1045.02 975.516 1093.09 854.822 1093.09C734.129 1093.09 618.379 1045.02 533.035 959.467C520.482 946.882 508.738 933.638 497.837 919.815C474.78 923.853 451.058 925.961 426.844 925.961C279.773 925.961 150.844 848.292 78.833 731.735H20.2344C9.05929 731.735 0 722.582 0 711.292V372.761C0 361.471 9.05929 352.317 20.2344 352.317H52.6777C116.064 208.669 259.744 108.405 426.844 108.405C482.024 108.405 534.651 119.34 582.676 139.159V0L937.223 352.317ZM20.2324 372.76V711.292H287.83C300.242 711.292 311.41 708.315 321.338 702.359C331.578 696.09 339.799 687.939 346.005 677.909C352.209 667.566 355.311 656.125 355.312 643.586V440.466C355.311 427.927 352.209 416.644 346.005 406.612C339.799 396.269 331.578 388.118 321.338 382.162C311.41 375.893 300.242 372.76 287.83 372.76H20.2324ZM466.067 372.76C453.657 372.76 442.331 375.893 432.094 382.162C422.166 388.118 414.099 396.269 407.893 406.612C401.998 416.644 399.051 427.927 399.051 440.466V711.292H466.067V599.857H666.184V711.292H734.131V440.466C734.131 427.927 731.028 416.644 724.822 406.612C718.618 396.269 710.395 388.118 700.157 382.162C690.229 375.893 679.059 372.76 666.649 372.76H466.067ZM768.543 372.76V711.292H835.093V372.76H768.543ZM933.696 372.76C921.596 372.76 910.427 375.893 900.188 382.162C889.95 388.118 881.883 396.269 875.988 406.612C870.094 416.644 867.147 427.927 867.146 440.466V508.642C867.146 520.867 870.094 532.152 875.988 542.496C881.883 552.84 889.95 561.146 900.188 567.415C910.427 573.371 921.596 576.35 933.696 576.35H1131.49C1132.11 576.35 1132.73 576.663 1133.35 577.289C1133.97 577.603 1134.28 578.073 1134.28 578.701V640.295C1134.28 641.234 1133.97 642.019 1133.35 642.646C1132.73 642.958 1132.11 643.116 1131.49 643.116H936.487C935.869 643.116 935.248 642.958 934.627 642.646C934.318 642.019 934.161 641.234 934.161 640.295V614.903H867.146V643.586C867.147 656.125 870.094 667.566 875.988 677.909C881.883 687.939 889.95 696.09 900.188 702.359C910.427 708.315 921.596 711.292 933.696 711.292H1135.21C1147.31 711.292 1158.32 708.315 1168.25 702.359C1178.49 696.09 1186.71 687.939 1192.92 677.909C1199.12 667.566 1202.22 656.125 1202.22 643.586V575.408C1202.22 572.121 1202 568.902 1201.55 565.75C1201.54 565.692 1201.53 565.635 1201.52 565.577C1201.48 565.259 1201.43 564.942 1201.38 564.626C1201.37 564.583 1201.37 564.539 1201.36 564.496C1201.19 563.486 1201.01 562.483 1200.8 561.487C1200.79 561.444 1200.78 561.401 1200.77 561.357C1200.7 561.051 1200.64 560.745 1200.57 560.439C1200.56 560.401 1200.55 560.362 1200.54 560.323C1200.47 560.023 1200.4 559.723 1200.32 559.424C1200.31 559.367 1200.3 559.311 1200.28 559.255C1200.21 558.97 1200.14 558.687 1200.06 558.403C1200.05 558.336 1200.03 558.269 1200.01 558.202C1199.94 557.94 1199.87 557.679 1199.79 557.418C1199.77 557.321 1199.74 557.223 1199.71 557.126C1199.64 556.874 1199.57 556.622 1199.49 556.37C1199.46 556.285 1199.44 556.2 1199.41 556.115C1199.34 555.864 1199.26 555.613 1199.18 555.363C1199.15 555.264 1199.12 555.165 1199.08 555.065C1199.01 554.837 1198.94 554.608 1198.86 554.38C1198.81 554.249 1198.77 554.118 1198.72 553.987C1198.65 553.783 1198.58 553.579 1198.51 553.375C1198.46 553.22 1198.4 553.065 1198.34 552.91C1198.28 552.739 1198.22 552.567 1198.15 552.396C1198.09 552.236 1198.03 552.077 1197.97 551.918C1197.9 551.728 1197.83 551.537 1197.75 551.348C1197.67 551.145 1197.59 550.942 1197.51 550.74C1197.46 550.629 1197.42 550.517 1197.37 550.406C1197.29 550.204 1197.2 550.003 1197.12 549.802C1197.06 549.662 1197 549.522 1196.94 549.383C1196.87 549.226 1196.8 549.07 1196.73 548.913C1196.65 548.725 1196.57 548.536 1196.48 548.349C1196.42 548.21 1196.36 548.071 1196.29 547.933C1196.21 547.755 1196.13 547.577 1196.04 547.399C1195.95 547.206 1195.86 547.013 1195.76 546.82C1195.7 546.686 1195.64 546.552 1195.57 546.418C1195.48 546.23 1195.38 546.043 1195.29 545.855C1195.21 545.712 1195.14 545.568 1195.07 545.425C1194.99 545.273 1194.91 545.123 1194.83 544.972C1194.23 543.823 1193.59 542.683 1192.92 541.557C1191.1 538.53 1189.11 535.692 1186.95 533.041C1186.63 532.645 1186.3 532.253 1185.97 531.865C1180.95 525.98 1175.05 521.059 1168.25 517.106C1167.41 516.577 1166.57 516.072 1165.71 515.588C1165.64 515.546 1165.57 515.503 1165.49 515.462C1165.26 515.332 1165.03 515.206 1164.8 515.08C1164.72 515.039 1164.65 514.996 1164.57 514.955C1163.99 514.641 1163.41 514.338 1162.82 514.045C1162.78 514.027 1162.75 514.009 1162.71 513.991C1162.49 513.881 1162.27 513.774 1162.05 513.667C1161.93 513.613 1161.82 513.558 1161.71 513.505C1161.47 513.391 1161.23 513.28 1160.99 513.169C1160.93 513.142 1160.87 513.115 1160.81 513.088C1160.56 512.973 1160.3 512.861 1160.05 512.75C1159.97 512.717 1159.9 512.684 1159.82 512.651C1159.62 512.564 1159.42 512.479 1159.22 512.394C1159.08 512.335 1158.93 512.276 1158.79 512.218C1158.57 512.127 1158.35 512.038 1158.13 511.95C1158.05 511.922 1157.98 511.892 1157.91 511.864C1157.66 511.764 1157.4 511.666 1157.14 511.569C1157.06 511.539 1156.98 511.509 1156.9 511.479C1156.68 511.398 1156.46 511.32 1156.25 511.242C1156.12 511.196 1155.99 511.15 1155.86 511.105C1155.67 511.038 1155.47 510.971 1155.28 510.905C1155.14 510.858 1155 510.811 1154.86 510.765C1154.66 510.701 1154.47 510.639 1154.28 510.578C1154.14 510.533 1153.99 510.488 1153.85 510.443C1153.66 510.383 1153.46 510.324 1153.27 510.266C1153.12 510.223 1152.98 510.182 1152.84 510.141C1152.65 510.085 1152.46 510.031 1152.27 509.978C1152.13 509.938 1151.98 509.899 1151.84 509.86C1151.63 509.802 1151.41 509.744 1151.2 509.688C1151.09 509.66 1150.98 509.632 1150.87 509.604C1150.64 509.547 1150.41 509.49 1150.18 509.435C1150.07 509.407 1149.95 509.38 1149.84 509.354C1149.59 509.296 1149.35 509.239 1149.1 509.185C1149.03 509.168 1148.95 509.152 1148.88 509.136C1148.63 509.081 1148.38 509.028 1148.12 508.977C1148 508.95 1147.87 508.925 1147.74 508.899C1147.51 508.855 1147.28 508.811 1147.06 508.769C1146.97 508.752 1146.88 508.737 1146.79 508.721C1146.53 508.672 1146.26 508.625 1145.99 508.58C1145.91 508.567 1145.84 508.555 1145.76 508.543C1145.49 508.499 1145.22 508.456 1144.95 508.415C1144.86 508.401 1144.77 508.389 1144.68 508.376C1144.42 508.339 1144.17 508.302 1143.92 508.269C1143.79 508.252 1143.67 508.238 1143.55 508.223C1143.32 508.193 1143.09 508.163 1142.86 508.137C1142.73 508.122 1142.6 508.11 1142.48 508.096C1142.24 508.07 1142 508.044 1141.77 508.021C1141.68 508.012 1141.6 508.005 1141.51 507.997C1141.23 507.971 1140.96 507.945 1140.68 507.922C1140.63 507.918 1140.59 507.916 1140.55 507.912C1139.52 507.83 1138.48 507.772 1137.43 507.738C1137.42 507.738 1137.4 507.737 1137.38 507.736C1136.66 507.714 1135.94 507.702 1135.21 507.702H936.487C935.869 507.702 935.248 507.546 934.627 507.232C934.318 506.605 934.161 505.979 934.161 505.352V443.757C934.161 442.817 934.318 442.189 934.627 441.875C935.248 441.25 935.869 440.936 936.487 440.936H1026.4L1026.4 440.937H1131.48C1132.1 440.937 1132.73 441.25 1133.34 441.876C1133.97 442.19 1134.28 442.818 1134.28 443.757V469.146H1202.22V440.466C1202.22 427.927 1199.12 416.644 1192.92 406.612C1186.71 396.269 1178.49 388.118 1168.25 382.162C1167.41 381.633 1166.57 381.128 1165.71 380.644C1165.64 380.602 1165.57 380.559 1165.49 380.518C1165.26 380.388 1165.03 380.262 1164.8 380.136C1164.72 380.094 1164.65 380.051 1164.57 380.01C1164.33 379.879 1164.09 379.753 1163.85 379.626C1163.78 379.59 1163.71 379.552 1163.64 379.516C1163.42 379.405 1163.21 379.297 1162.99 379.189C1162.88 379.134 1162.77 379.077 1162.66 379.022C1162.49 378.938 1162.32 378.855 1162.15 378.771C1162 378.7 1161.85 378.627 1161.7 378.557C1161.46 378.444 1161.23 378.334 1160.99 378.225C1160.93 378.198 1160.87 378.17 1160.81 378.144C1160.56 378.029 1160.3 377.917 1160.05 377.806C1159.97 377.773 1159.9 377.739 1159.82 377.707C1159.62 377.62 1159.42 377.534 1159.22 377.449C1159.08 377.391 1158.94 377.332 1158.8 377.274C1158.6 377.194 1158.4 377.115 1158.21 377.037C1158.09 376.991 1157.97 376.945 1157.86 376.899C1157.64 376.816 1157.43 376.734 1157.21 376.652C1157.1 376.61 1156.99 376.568 1156.88 376.526C1156.68 376.454 1156.48 376.382 1156.29 376.312C1156.12 376.253 1155.96 376.195 1155.79 376.138C1155.66 376.091 1155.52 376.046 1155.39 376C1155.18 375.93 1154.98 375.86 1154.77 375.792C1154.64 375.75 1154.51 375.709 1154.39 375.668C1154.18 375.601 1153.97 375.535 1153.76 375.471C1153.63 375.431 1153.5 375.391 1153.37 375.353C1153.16 375.289 1152.94 375.226 1152.73 375.165C1152.61 375.13 1152.49 375.096 1152.37 375.062C1152.16 375.003 1151.95 374.945 1151.74 374.889C1151.59 374.849 1151.44 374.808 1151.29 374.77C1151.11 374.722 1150.93 374.676 1150.75 374.63C1150.59 374.591 1150.44 374.552 1150.28 374.515C1150.06 374.461 1149.84 374.41 1149.62 374.359C1149.51 374.333 1149.4 374.307 1149.28 374.281C1149.04 374.227 1148.79 374.174 1148.55 374.122C1148.46 374.102 1148.36 374.082 1148.27 374.062C1148.03 374.013 1147.79 373.965 1147.55 373.918C1147.42 373.893 1147.29 373.868 1147.16 373.844C1146.94 373.803 1146.72 373.764 1146.5 373.726C1146.38 373.704 1146.25 373.681 1146.13 373.66C1145.91 373.624 1145.7 373.589 1145.48 373.555C1145.33 373.531 1145.18 373.507 1145.04 373.484C1144.76 373.442 1144.47 373.402 1144.19 373.363C1144.15 373.357 1144.1 373.35 1144.06 373.344C1143.41 373.256 1142.76 373.18 1142.11 373.112C1142.02 373.103 1141.93 373.093 1141.84 373.084C1140.03 372.904 1138.2 372.798 1136.34 372.768L1135.79 372.764C1135.59 372.762 1135.4 372.76 1135.21 372.76H933.696ZM1234.4 372.76V711.292H1300.95V636.881H1300.96V372.761H1300.95V372.76H1234.4ZM284.573 440.936C285.503 440.936 286.124 441.25 286.434 441.875C287.055 442.189 287.364 442.817 287.364 443.757V640.295C287.364 641.234 287.055 642.019 286.434 642.646C286.124 642.958 285.503 643.116 284.573 643.116H89.5752C88.9547 643.116 88.3341 642.958 87.7139 642.646C87.0932 642.019 86.7832 641.234 86.7832 640.295V443.757C86.7832 442.817 87.0932 442.189 87.7139 441.875C88.3341 441.25 88.9547 440.936 89.5752 440.936H284.573ZM1214.17 485.646C1210.82 488.125 1206.69 489.59 1202.22 489.59H1155.04C1163.3 491.598 1171.18 494.908 1178.6 499.538C1191.72 507.226 1202.32 517.791 1210.22 530.96C1211.66 533.369 1212.98 535.823 1214.17 538.316V485.646ZM663.393 440.936C664.323 440.936 664.943 441.25 665.253 441.875C665.874 442.189 666.184 442.817 666.184 443.757V532.152H466.067V443.757C466.067 442.817 466.222 442.189 466.533 441.875C467.152 441.25 467.929 440.936 468.859 440.936H663.393ZM1073.02 487.259H1124.9C1118.45 483.842 1114.04 477.017 1114.04 469.146V461.38H1046.98L1073.02 487.259Z" fill="black"/>
</svg>
