<svg width="55" height="55" viewBox="-12 -12 140 140" fill="none"
     xmlns="http://www.w3.org/2000/svg">
  <path d="M47.7547 3.7074C22.79 8.77496 4 30.8465 4 57.3067C4 87.513 28.487 112 58.6933 112C85.1535 112 107.225 93.21 112.293 68.2453"
        stroke="#2563EB" stroke-width="6.09146" stroke-linecap="round"/>
  <path d="M95.7103 90.3415C97.79 89.8901 99.7149 89.172 101.463 88.1918M72.6982 86.7712C75.9232 88.1839 79.034 89.2306 81.9983 89.9182M51.9445 73.8144C54.1833 75.3862 56.5763 77.271 58.9058 78.8974M9.41467 67.7351C11.16 66.8828 13.0441 65.9043 15.1677 65.0665M28.1008 63.2683C31.1432 63.6064 34.5548 64.4735 38.4232 66.1013"
        stroke="#2563EB" stroke-width="6.09146" stroke-linecap="round" stroke-linejoin="round"/>
  <path d="M93.3414 30.7805C93.3414 26.2949 89.7051 22.6586 85.2195 22.6586C80.7339 22.6586 77.0975 26.2949 77.0975 30.7805C77.0975 35.2661 80.7339 38.9025 85.2195 38.9025C89.7051 38.9025 93.3414 35.2661 93.3414 30.7805Z"
        stroke="#2563EB" stroke-width="6.09146"/>
  <path d="M85.2195 3.7074C99.8707 3.7074 112.293 15.7178 112.293 30.2887C112.293 45.0917 99.6685 55.4799 88.008 62.5437C87.1582 63.0186 86.1972 63.2683 85.2195 63.2683C84.2417 63.2683 83.2807 63.0186 82.4309 62.5437C70.7922 55.4109 58.1463 45.1429 58.1463 30.2887C58.1463 15.7178 70.5682 3.7074 85.2195 3.7074Z"
        stroke="#2563EB" stroke-width="6.09146"/>
</svg>